<svg width="15" height="15" viewBox="0 0 15 15" fill="none" xmlns="http://www.w3.org/2000/svg">
<path d="M6.05513 7.50317L11.6666 1.89146C11.8211 1.73732 11.9061 1.53122 11.9061 1.31146C11.9061 1.09159 11.8211 0.88561 11.6666 0.73122L11.1749 0.239756C11.0206 0.0851219 10.8144 0 10.5946 0C10.3749 0 10.1689 0.0851219 10.0145 0.239756L3.33317 6.92098C3.17817 7.07585 3.0933 7.2828 3.09391 7.5028C3.0933 7.72378 3.17805 7.93049 3.33317 8.08549L10.0083 14.7602C10.1627 14.9149 10.3687 15 10.5885 15C10.8083 15 11.0143 14.9149 11.1688 14.7602L11.6604 14.2688C11.9802 13.9489 11.9802 13.4282 11.6604 13.1084L6.05513 7.50317Z" fill="#503E9D"/>
</svg>
