<svg width="60" height="60" viewBox="0 0 60 60" fill="none" xmlns="http://www.w3.org/2000/svg">
<g clip-path="url(#clip0)">
<path d="M30 37.3001C39.8147 37.3001 47.7711 29.3437 47.7711 19.529C47.7711 9.71432 39.8147 1.75793 30 1.75793C20.1853 1.75793 12.2289 9.71432 12.2289 19.529C12.2289 29.3437 20.1853 37.3001 30 37.3001Z" fill="#A5E887"/>
<path d="M29.9999 1.75781V37.3001C39.8147 37.3001 47.771 29.3437 47.771 19.529C47.771 9.71438 39.8147 1.75781 29.9999 1.75781Z" fill="#00CC76"/>
<path d="M49.5288 19.5289C49.5288 8.76064 40.7682 0 30 0C19.2318 0 10.4712 8.76064 10.4712 19.5289C10.4712 28.4312 16.459 35.9609 24.6184 38.3032V45.1215H18.3502L29.9987 60.0001L41.647 45.1215H35.379V38.3041C43.5398 35.9625 49.5288 28.4321 49.5288 19.5289ZM13.9865 19.5289C13.9865 10.699 21.1702 3.51532 30 3.51532C38.8298 3.51532 46.0135 10.699 46.0135 19.5289C46.0135 28.3586 38.8298 35.5423 30 35.5423C21.1702 35.5423 13.9865 28.3588 13.9865 19.5289Z" fill="#00CC76"/>
<path d="M49.5288 19.5289C49.5288 8.76064 40.7682 0 29.9999 0V3.51532C38.8298 3.51532 46.0135 10.699 46.0135 19.5289C46.0135 28.3586 38.8298 35.5423 29.9999 35.5423V59.9982L41.6469 45.1214H35.3788V38.3039C43.5397 35.9625 49.5288 28.4321 49.5288 19.5289Z" fill="#009986"/>
<path d="M32.2905 17.6408H28.6047C27.7967 17.6408 27.1394 16.9836 27.1394 16.1755C27.1394 15.3675 27.7968 14.7101 28.6047 14.7101H34.8275V11.1948H31.7537V8.91571H28.2384V11.2097C25.6626 11.398 23.6241 13.5525 23.6241 16.1755C23.6241 18.9219 25.8584 21.1562 28.6047 21.1562H32.2905C33.1705 21.1562 33.8864 21.872 33.8864 22.752C33.8864 23.632 33.1705 24.3478 32.2905 24.3478H24.3483V27.8631H28.2384V30.1422H31.7537V27.8631H32.2905C35.1089 27.8631 37.4017 25.5703 37.4017 22.752C37.4017 19.9336 35.1088 17.6408 32.2905 17.6408Z" fill="#FFF5F5"/>
<path d="M34.8275 14.7101V11.1948H31.7537V8.91571H29.9999V14.7101H34.8275Z" fill="#E1EBF0"/>
<path d="M31.7546 27.8631H32.2914C35.1098 27.8631 37.4026 25.5703 37.4026 22.7519C37.4026 19.9336 35.1098 17.6407 32.2914 17.6407H30.0009V21.1561H32.2914C33.1714 21.1561 33.8872 21.8719 33.8872 22.7519C33.8872 23.6319 33.1714 24.3477 32.2914 24.3477H30.0009V30.1422H31.7547V27.8631H31.7546Z" fill="#E1EBF0"/>
</g>
<defs>
<clipPath id="clip0">
<rect width="60" height="60" fill="white"/>
</clipPath>
</defs>
</svg>
