<svg width="60" height="60" viewBox="0 0 60 60" fill="none" xmlns="http://www.w3.org/2000/svg">
<g clip-path="url(#clip0)">
<path d="M34.6259 25.374C33.9388 24.6869 32.827 24.6869 32.14 25.374L22.1963 35.3177C21.5092 36.0046 21.5092 37.1165 22.1963 37.8036C22.8833 38.4907 23.9953 38.4907 24.6822 37.8036L34.6259 27.8599C35.3129 27.1728 35.3129 26.0611 34.6259 25.374Z" fill="#EDF5FF"/>
<path d="M24.6821 37.8039L34.6258 27.8602C35.3129 27.1731 35.3129 26.0613 34.6258 25.3743L22.1962 37.8039C22.8833 38.4909 23.9953 38.4909 24.6821 37.8039Z" fill="#D5E8FE"/>
<path d="M28.4111 23.403C29.3819 23.403 30.1689 22.616 30.1689 21.6452C30.1689 20.6744 29.3819 19.8874 28.4111 19.8874C27.4403 19.8874 26.6533 20.6744 26.6533 21.6452C26.6533 22.616 27.4403 23.403 28.4111 23.403Z" fill="#7ED8F6"/>
<path d="M38.3547 33.3466C39.3255 33.3466 40.1125 32.5596 40.1125 31.5888C40.1125 30.6179 39.3255 29.8309 38.3547 29.8309C37.3839 29.8309 36.5969 30.6179 36.5969 31.5888C36.5969 32.5596 37.3839 33.3466 38.3547 33.3466Z" fill="#59C36A"/>
<path d="M53.2704 28.375C54.2412 28.375 55.0282 27.588 55.0282 26.6172C55.0282 25.6464 54.2412 24.8594 53.2704 24.8594C52.2996 24.8594 51.5126 25.6464 51.5126 26.6172C51.5126 27.588 52.2996 28.375 53.2704 28.375Z" fill="#E63950"/>
<path d="M33.3829 8.48761C34.3537 8.48761 35.1407 7.70061 35.1407 6.7298C35.1407 5.75899 34.3537 4.97198 33.3829 4.97198C32.4121 4.97198 31.6251 5.75899 31.6251 6.7298C31.6251 7.70061 32.4121 8.48761 33.3829 8.48761Z" fill="#FF7B4A"/>
<path d="M48.2985 3.51562C49.2693 3.51562 50.0563 2.72863 50.0563 1.75781C50.0563 0.786999 49.2693 0 48.2985 0C47.3277 0 46.5407 0.786999 46.5407 1.75781C46.5407 2.72863 47.3277 3.51562 48.2985 3.51562Z" fill="#97DE3D"/>
<path d="M58.2422 13.4593C59.213 13.4593 60 12.6723 60 11.7015C60 10.7307 59.213 9.94366 58.2422 9.94366C57.2714 9.94366 56.4844 10.7307 56.4844 11.7015C56.4844 12.6723 57.2714 13.4593 58.2422 13.4593Z" fill="#6AA9FF"/>
<path d="M58.0759 18.9976C56.1753 17.3119 54.5422 15.8633 52.6415 14.1776C52.5188 14.5479 54.8152 7.65577 54.9382 7.28545C55.1483 6.65311 54.9083 5.99217 54.4582 5.54182C54.0078 5.09159 53.3469 4.8517 52.7145 5.06182C50.304 5.86502 48.2329 6.55526 45.8224 7.35846C44.9102 6.35194 42.3608 3.42952 41.0023 1.92413C40.5195 1.38893 39.8337 1.23659 39.2319 1.39584C38.6302 1.5551 38.1124 2.02584 37.9652 2.73741C37.4558 5.22694 37.0181 7.36584 36.5087 9.85538C35.1782 10.1311 31.377 10.9014 29.3907 11.3119C28.6822 11.4585 28.2089 11.9768 28.0476 12.5792C27.8864 13.1815 28.0375 13.8675 28.5774 14.349C30.4781 16.0348 32.1111 17.4833 34.0118 19.1691C33.5839 20.4585 32.3544 24.1365 31.7151 26.0612C31.4871 26.7481 31.6996 27.4176 32.1411 27.859L32.1413 27.8592C32.5829 28.3005 33.2529 28.5128 33.9389 28.285C36.3494 27.4818 38.4207 26.7915 40.831 25.9883C41.5873 26.916 44.5101 30.0477 45.6511 31.4227C46.0967 31.9595 46.7814 32.1172 47.3919 31.9602C48.0023 31.8032 48.5388 31.3313 48.6881 30.6095C49.1975 28.12 49.6352 25.9811 50.1446 23.4915C51.475 23.2158 55.2762 22.4455 57.2626 22.035C57.9948 21.8835 58.4622 21.3443 58.6144 20.7327C58.7668 20.121 58.6039 19.4373 58.0759 18.9976Z" fill="#FED843"/>
<path d="M33.9388 28.2848C36.3493 27.4816 38.4206 26.7914 40.8309 25.9882C41.5872 26.9158 44.51 30.0475 45.6509 31.4225C46.0966 31.9593 46.7813 32.1171 47.3918 31.96C48.0022 31.803 48.5387 31.3311 48.688 30.6093C49.1974 28.1198 49.6351 25.9809 50.1445 23.4914C51.4749 23.2156 55.2761 22.4454 57.2625 22.0348C57.9947 21.8833 58.4621 21.3441 58.6143 20.7325C58.7667 20.1209 58.6038 19.4374 58.0757 18.9977C56.1752 17.312 54.5421 15.8634 52.6414 14.1777C52.5187 14.548 54.8151 7.65582 54.9381 7.2855C55.1482 6.65316 54.9082 5.99222 54.4581 5.54187L32.1411 27.8588L32.1413 27.8591C32.5829 28.3003 33.2528 28.5127 33.9388 28.2848Z" fill="#FF9F00"/>
<path d="M24.6819 35.3179C22.6259 33.2616 19.2804 33.2616 17.2244 35.3179L1.54197 51C-0.514316 53.0563 -0.514316 56.4015 1.54197 58.4578C3.59826 60.5141 6.9435 60.5141 8.99979 58.4578L24.6819 42.7754C26.7382 40.7194 26.7382 37.3739 24.6819 35.3179Z" fill="#5F55AF"/>
<path d="M8.99999 58.4579L24.6821 42.7755C26.7384 40.7195 26.7384 37.374 24.6821 35.3179L1.54218 58.4579C3.59846 60.5142 6.9437 60.5142 8.99999 58.4579Z" fill="#453D83"/>
</g>
<defs>
<clipPath id="clip0">
<rect width="60" height="60" fill="white"/>
</clipPath>
</defs>
</svg>
