<svg width="25" height="25" viewBox="0 0 25 25" fill="none" xmlns="http://www.w3.org/2000/svg">
<path d="M22.0703 7.18258L23.5352 14.9154L22.0703 22.0214H2.92969L1.46484 15.0712L2.92969 7.18258C2.44512 6.81876 5.57661 6.60523 7.65127 8.1628C10.2055 10.0804 11.9621 13.9272 12.5 14.331C12.5831 14.2686 12.9087 11.8246 15.5958 9.80728C17.6478 8.26671 22.3469 6.97491 22.0703 7.18258Z" fill="#FFF5F5"/>
<path d="M22.0703 22.0218L23.5352 14.9157L22.0703 7.1829C22.3469 6.97519 17.6478 8.26698 15.5958 9.80761C12.9087 11.8249 12.5832 14.2689 12.5 14.3313V22.0218H22.0703Z" fill="#E3E7EA"/>
<path d="M18.6205 9.77539C18.5935 9.79561 18.5611 9.81992 18.5311 9.84243C18.5116 9.85713 18.5503 9.82798 18.6205 9.77539Z" fill="#00A66C"/>
<path d="M2.92969 4.80957V22.0215H2.19727C0.981397 22.0215 0 21.04 0 19.8242V5.17578C0 5.11714 0 5.05854 0.0146484 5L2.92969 4.80957Z" fill="#F03800"/>
<path d="M25 5.17578V19.8242C25 21.04 24.0186 22.0215 22.8027 22.0215H22.0703V6.27441L24.9854 5C25 5.05854 25 5.11714 25 5.17578Z" fill="#CD0000"/>
<path d="M24.9854 5C10.4928 15.8737 27.0607 3.4062 12.5 14.3311C11.2284 13.377 17.0577 17.7873 0.0146484 5C0.102539 3.85737 1.04009 2.97852 2.19727 2.97852L7.97808 4.75063L12.5 10.6689L15.7692 5.65361L22.8027 2.97852C23.9599 2.97852 24.8975 3.85737 24.9854 5Z" fill="#FF641A"/>
<path d="M12.5 14.3311C12.504 14.334 12.5036 14.3337 12.5 14.3311C13.5221 13.5642 23.2799 6.27959 24.9854 5C24.8975 3.85737 23.96 2.97852 22.8027 2.97852L15.7692 5.65356L12.5 10.6689V14.3311Z" fill="#F03800"/>
<path d="M22.8027 2.97852L12.5 10.6689L2.19727 2.97852H22.8027Z" fill="#FFF5F5"/>
<path d="M22.8027 2.97852H12.5V10.6689L22.8027 2.97852Z" fill="#E3E7EA"/>
</svg>
