<svg width="200" height="25" viewBox="0 0 200 25" fill="none" xmlns="http://www.w3.org/2000/svg">
<path d="M4.32058 12.8C4.32058 14.9428 5.18015 16.0143 6.8993 16.0143C7.29079 16.0143 7.65675 15.9628 7.99717 15.86C8.3376 15.7571 8.62696 15.6371 8.86526 15.5V9.37998C8.67803 9.34569 8.45675 9.31998 8.20143 9.30283C7.94611 9.26855 7.64824 9.25141 7.30781 9.25141C6.30356 9.25141 5.55462 9.58569 5.061 10.2543C4.56739 10.9228 4.32058 11.7714 4.32058 12.8ZM12.6695 18.3028C12.6695 20.5143 12.1078 22.1514 10.9844 23.2143C9.87803 24.2943 8.15888 24.8343 5.82696 24.8343C5.00994 24.8343 4.19292 24.7571 3.3759 24.6028C2.55888 24.4657 1.80143 24.2771 1.10356 24.0371L1.76739 20.8228C2.36313 21.0628 2.98441 21.2514 3.63122 21.3885C4.29505 21.5257 5.04398 21.5943 5.87803 21.5943C6.96739 21.5943 7.73335 21.3543 8.1759 20.8743C8.63547 20.3943 8.86526 19.7771 8.86526 19.0228V18.5343C8.45675 18.7228 8.03122 18.8685 7.58866 18.9714C7.16313 19.0571 6.69505 19.1 6.18441 19.1C4.32909 19.1 2.90781 18.5514 1.92058 17.4543C0.933345 16.34 0.439728 14.7885 0.439728 12.8C0.439728 11.8057 0.592919 10.9057 0.899302 10.1C1.20569 9.27712 1.64824 8.57426 2.22696 7.99141C2.82271 7.40855 3.54611 6.96283 4.39717 6.65426C5.24824 6.32855 6.20994 6.16569 7.28228 6.16569C7.74186 6.16569 8.20994 6.19141 8.68654 6.24283C9.18015 6.27712 9.66526 6.32855 10.1419 6.39712C10.6185 6.46569 11.0695 6.55141 11.495 6.65426C11.9376 6.73998 12.3291 6.83426 12.6695 6.93712V18.3028ZM17.6419 13.34C17.6419 12.14 17.8206 11.0943 18.178 10.2028C18.5525 9.29426 19.0376 8.53998 19.6333 7.93998C20.2291 7.33998 20.9099 6.88569 21.6759 6.57712C22.4589 6.26855 23.2589 6.11426 24.0759 6.11426C25.9823 6.11426 27.4887 6.70569 28.595 7.88855C29.7014 9.05426 30.2546 10.7771 30.2546 13.0571C30.2546 13.28 30.2461 13.5285 30.2291 13.8028C30.2121 14.06 30.195 14.2914 30.178 14.4971H21.5482C21.6333 15.2857 21.9993 15.9114 22.6461 16.3743C23.2929 16.8371 24.161 17.0685 25.2504 17.0685C25.9482 17.0685 26.6291 17.0085 27.2929 16.8885C27.9738 16.7514 28.527 16.5885 28.9525 16.4L29.4631 19.5114C29.2589 19.6143 28.9865 19.7171 28.6461 19.82C28.3057 19.9228 27.9227 20.0085 27.4972 20.0771C27.0887 20.1628 26.6461 20.2314 26.1695 20.2828C25.6929 20.3343 25.2163 20.36 24.7397 20.36C23.5312 20.36 22.4759 20.18 21.5738 19.82C20.6887 19.46 19.9482 18.9714 19.3525 18.3543C18.7738 17.72 18.3397 16.9743 18.0504 16.1171C17.778 15.26 17.6419 14.3343 17.6419 13.34ZM26.578 11.8743C26.561 11.5485 26.5014 11.2314 26.3993 10.9228C26.3142 10.6143 26.1695 10.34 25.9653 10.1C25.778 9.85998 25.5312 9.66284 25.2248 9.50855C24.9355 9.35426 24.5695 9.27712 24.127 9.27712C23.7014 9.27712 23.3355 9.35426 23.0291 9.50855C22.7227 9.64569 22.4674 9.83426 22.2631 10.0743C22.0589 10.3143 21.8972 10.5971 21.778 10.9228C21.6759 11.2314 21.5993 11.5485 21.5482 11.8743H26.578ZM35.1053 3.10569L38.9095 2.48855V6.47426H43.4797V9.66283H38.9095V14.42C38.9095 15.2257 39.0457 15.8685 39.318 16.3485C39.6074 16.8285 40.1776 17.0685 41.0287 17.0685C41.4372 17.0685 41.8542 17.0343 42.2797 16.9657C42.7223 16.88 43.1223 16.7685 43.4797 16.6314L44.0159 19.6143C43.5563 19.8028 43.0457 19.9657 42.484 20.1028C41.9223 20.24 41.2329 20.3085 40.4159 20.3085C39.3776 20.3085 38.518 20.1714 37.8372 19.8971C37.1563 19.6057 36.6116 19.2114 36.2031 18.7143C35.7946 18.2 35.5053 17.5828 35.335 16.8628C35.1819 16.1428 35.1053 15.3457 35.1053 14.4714V3.10569ZM52.5206 20C51.6526 18.2857 50.7675 16.28 49.8653 13.9828C48.9802 11.6857 48.1377 9.18283 47.3377 6.47426H51.3717C51.5419 7.14283 51.7377 7.87141 51.9589 8.65998C52.1972 9.43141 52.4355 10.22 52.6738 11.0257C52.9292 11.8143 53.176 12.5857 53.4143 13.34C53.6696 14.0943 53.9164 14.78 54.1547 15.3971C54.376 14.78 54.6143 14.0943 54.8696 13.34C55.1249 12.5857 55.3717 11.8143 55.61 11.0257C55.8653 10.22 56.1036 9.43141 56.3249 8.65998C56.5632 7.87141 56.7675 7.14283 56.9377 6.47426H60.8696C60.0696 9.18283 59.2185 11.6857 58.3164 13.9828C57.4313 16.28 56.5547 18.2857 55.6866 20H52.5206ZM68.754 20H64.9497V6.47426H68.754V20ZM69.1114 2.56569C69.1114 3.26855 68.8816 3.82569 68.4221 4.23712C67.9795 4.63141 67.4519 4.82855 66.8391 4.82855C66.2263 4.82855 65.6901 4.63141 65.2306 4.23712C64.788 3.82569 64.5667 3.26855 64.5667 2.56569C64.5667 1.86283 64.788 1.31426 65.2306 0.919977C65.6901 0.508548 66.2263 0.302834 66.8391 0.302834C67.4519 0.302834 67.9795 0.508548 68.4221 0.919977C68.8816 1.31426 69.1114 1.86283 69.1114 2.56569ZM73.7341 13.34C73.7341 12.14 73.9128 11.0943 74.2702 10.2028C74.6447 9.29426 75.1298 8.53998 75.7255 7.93998C76.3213 7.33998 77.0021 6.88569 77.7681 6.57712C78.5511 6.26855 79.3511 6.11426 80.1681 6.11426C82.0745 6.11426 83.5809 6.70569 84.6872 7.88855C85.7936 9.05426 86.3468 10.7771 86.3468 13.0571C86.3468 13.28 86.3383 13.5285 86.3213 13.8028C86.3043 14.06 86.2872 14.2914 86.2702 14.4971H77.6404C77.7255 15.2857 78.0915 15.9114 78.7383 16.3743C79.3851 16.8371 80.2532 17.0685 81.3426 17.0685C82.0404 17.0685 82.7213 17.0085 83.3851 16.8885C84.066 16.7514 84.6192 16.5885 85.0447 16.4L85.5553 19.5114C85.3511 19.6143 85.0787 19.7171 84.7383 19.82C84.3979 19.9228 84.0149 20.0085 83.5894 20.0771C83.1809 20.1628 82.7383 20.2314 82.2617 20.2828C81.7851 20.3343 81.3085 20.36 80.8319 20.36C79.6234 20.36 78.5681 20.18 77.666 19.82C76.7809 19.46 76.0404 18.9714 75.4447 18.3543C74.866 17.72 74.4319 16.9743 74.1426 16.1171C73.8702 15.26 73.7341 14.3343 73.7341 13.34ZM82.6702 11.8743C82.6532 11.5485 82.5936 11.2314 82.4915 10.9228C82.4064 10.6143 82.2617 10.34 82.0575 10.1C81.8702 9.85998 81.6234 9.66284 81.317 9.50855C81.0277 9.35426 80.6617 9.27712 80.2192 9.27712C79.7936 9.27712 79.4277 9.35426 79.1213 9.50855C78.8149 9.64569 78.5596 9.83426 78.3553 10.0743C78.1511 10.3143 77.9894 10.5971 77.8702 10.9228C77.7681 11.2314 77.6915 11.5485 77.6404 11.8743H82.6702ZM99.4958 12.2343C99.1553 13.5371 98.7894 14.8314 98.3979 16.1171C98.0234 17.4028 97.6234 18.6971 97.1979 20H94.2362C93.9298 19.28 93.5979 18.4228 93.2404 17.4285C92.883 16.4343 92.5085 15.3543 92.117 14.1885C91.7426 13.0057 91.3511 11.7628 90.9426 10.46C90.5511 9.13998 90.1681 7.81141 89.7936 6.47426H93.8021C93.9383 7.09141 94.083 7.76855 94.2362 8.50569C94.4064 9.22569 94.5766 9.97141 94.7468 10.7428C94.9341 11.5143 95.1213 12.2943 95.3085 13.0828C95.5128 13.8543 95.717 14.6 95.9213 15.32C96.1426 14.5657 96.3553 13.7943 96.5596 13.0057C96.7809 12.2171 96.9851 11.4457 97.1724 10.6914C97.3766 9.91998 97.5638 9.18283 97.7341 8.47998C97.9213 7.75998 98.083 7.09141 98.2192 6.47426H100.977C101.113 7.09141 101.266 7.75998 101.436 8.47998C101.606 9.18283 101.785 9.91998 101.972 10.6914C102.16 11.4457 102.355 12.2171 102.56 13.0057C102.764 13.7943 102.977 14.5657 103.198 15.32C103.402 14.6 103.606 13.8543 103.811 13.0828C104.015 12.2943 104.202 11.5143 104.372 10.7428C104.56 9.97141 104.73 9.22569 104.883 8.50569C105.053 7.76855 105.206 7.09141 105.343 6.47426H109.3C108.926 7.81141 108.534 9.13998 108.126 10.46C107.734 11.7628 107.343 13.0057 106.951 14.1885C106.577 15.3543 106.202 16.4343 105.828 17.4285C105.47 18.4228 105.138 19.28 104.832 20H101.87C101.445 18.6971 101.028 17.4028 100.619 16.1171C100.211 14.8314 99.8362 13.5371 99.4958 12.2343ZM112.452 13.34C112.452 12.14 112.631 11.0943 112.988 10.2028C113.362 9.29426 113.848 8.53998 114.443 7.93998C115.039 7.33998 115.72 6.88569 116.486 6.57712C117.269 6.26855 118.069 6.11426 118.886 6.11426C120.792 6.11426 122.299 6.70569 123.405 7.88855C124.511 9.05426 125.065 10.7771 125.065 13.0571C125.065 13.28 125.056 13.5285 125.039 13.8028C125.022 14.06 125.005 14.2914 124.988 14.4971H116.358C116.443 15.2857 116.809 15.9114 117.456 16.3743C118.103 16.8371 118.971 17.0685 120.06 17.0685C120.758 17.0685 121.439 17.0085 122.103 16.8885C122.784 16.7514 123.337 16.5885 123.762 16.4L124.273 19.5114C124.069 19.6143 123.796 19.7171 123.456 19.82C123.116 19.9228 122.733 20.0085 122.307 20.0771C121.899 20.1628 121.456 20.2314 120.979 20.2828C120.503 20.3343 120.026 20.36 119.55 20.36C118.341 20.36 117.286 20.18 116.384 19.82C115.499 19.46 114.758 18.9714 114.162 18.3543C113.584 17.72 113.15 16.9743 112.86 16.1171C112.588 15.26 112.452 14.3343 112.452 13.34ZM121.388 11.8743C121.371 11.5485 121.311 11.2314 121.209 10.9228C121.124 10.6143 120.979 10.34 120.775 10.1C120.588 9.85998 120.341 9.66284 120.035 9.50855C119.745 9.35426 119.379 9.27712 118.937 9.27712C118.511 9.27712 118.145 9.35426 117.839 9.50855C117.533 9.64569 117.277 9.83426 117.073 10.0743C116.869 10.3143 116.707 10.5971 116.588 10.9228C116.486 11.2314 116.409 11.5485 116.358 11.8743H121.388ZM138.137 9.86855C137.796 9.78284 137.396 9.69712 136.937 9.61141C136.477 9.50855 135.984 9.45712 135.456 9.45712C135.218 9.45712 134.928 9.48283 134.588 9.53426C134.265 9.56855 134.018 9.61141 133.848 9.66283V20H130.043V7.19426C130.724 6.95426 131.524 6.73141 132.443 6.52569C133.379 6.30283 134.418 6.19141 135.558 6.19141C135.762 6.19141 136.009 6.20855 136.299 6.24283C136.588 6.25998 136.877 6.29426 137.167 6.34569C137.456 6.37998 137.745 6.43141 138.035 6.49998C138.324 6.55141 138.571 6.61998 138.775 6.70569L138.137 9.86855ZM146.712 17.2485C147.41 17.2485 147.904 17.18 148.193 17.0428C148.482 16.9057 148.627 16.64 148.627 16.2457C148.627 15.9371 148.44 15.6714 148.065 15.4485C147.691 15.2085 147.121 14.9428 146.355 14.6514C145.759 14.4285 145.214 14.1971 144.721 13.9571C144.244 13.7171 143.835 13.4343 143.495 13.1085C143.155 12.7657 142.891 12.3628 142.704 11.9C142.516 11.4371 142.423 10.88 142.423 10.2285C142.423 8.95998 142.891 7.95712 143.827 7.21998C144.763 6.48283 146.048 6.11426 147.682 6.11426C148.499 6.11426 149.282 6.19141 150.031 6.34569C150.78 6.48283 151.376 6.63712 151.818 6.80855L151.155 9.79141C150.712 9.63712 150.227 9.49998 149.699 9.37998C149.189 9.25998 148.61 9.19998 147.963 9.19998C146.772 9.19998 146.176 9.53426 146.176 10.2028C146.176 10.3571 146.201 10.4943 146.253 10.6143C146.304 10.7343 146.406 10.8543 146.559 10.9743C146.712 11.0771 146.916 11.1971 147.172 11.3343C147.444 11.4543 147.784 11.5914 148.193 11.7457C149.027 12.0543 149.716 12.3628 150.261 12.6714C150.806 12.9628 151.231 13.2885 151.538 13.6485C151.861 13.9914 152.082 14.3771 152.201 14.8057C152.338 15.2343 152.406 15.7314 152.406 16.2971C152.406 17.6343 151.904 18.6457 150.899 19.3314C149.912 20.0171 148.508 20.36 146.687 20.36C145.495 20.36 144.499 20.2571 143.699 20.0514C142.916 19.8457 142.372 19.6743 142.065 19.5371L142.704 16.4257C143.35 16.6828 144.014 16.8885 144.695 17.0428C145.376 17.18 146.048 17.2485 146.712 17.2485Z" fill="white"/>
<path d="M165.896 13.34C165.896 12.1571 165.632 11.2143 165.104 10.5114C164.577 9.79142 163.794 9.43142 162.755 9.43142C162.415 9.43142 162.1 9.44856 161.811 9.48284C161.521 9.49999 161.283 9.5257 161.096 9.55999V16.4771C161.334 16.6314 161.64 16.76 162.015 16.8628C162.406 16.9657 162.798 17.0171 163.189 17.0171C164.994 17.0171 165.896 15.7914 165.896 13.34ZM169.777 13.2371C169.777 14.2828 169.649 15.2343 169.394 16.0914C169.138 16.9486 168.764 17.6857 168.27 18.3028C167.777 18.92 167.164 19.4 166.432 19.7428C165.7 20.0857 164.857 20.2571 163.904 20.2571C163.377 20.2571 162.883 20.2057 162.423 20.1028C161.964 20 161.521 19.8543 161.096 19.6657V24.7571H157.292V6.93713C157.632 6.83427 158.023 6.73999 158.466 6.65427C158.909 6.55142 159.368 6.4657 159.845 6.39713C160.338 6.32856 160.832 6.27713 161.326 6.24284C161.836 6.19142 162.321 6.1657 162.781 6.1657C163.887 6.1657 164.874 6.33713 165.743 6.67999C166.611 7.0057 167.343 7.47713 167.938 8.09427C168.534 8.69427 168.985 9.43142 169.292 10.3057C169.615 11.18 169.777 12.1571 169.777 13.2371ZM182.837 9.86856C182.496 9.78284 182.096 9.69713 181.637 9.61142C181.177 9.50856 180.684 9.45713 180.156 9.45713C179.918 9.45713 179.628 9.48284 179.288 9.53427C178.965 9.56856 178.718 9.61142 178.548 9.66284V20H174.743V7.19427C175.424 6.95427 176.224 6.73142 177.143 6.5257C178.079 6.30284 179.118 6.19142 180.258 6.19142C180.462 6.19142 180.709 6.20856 180.999 6.24284C181.288 6.25999 181.577 6.29427 181.867 6.3457C182.156 6.37999 182.445 6.43142 182.735 6.49999C183.024 6.55142 183.271 6.61999 183.475 6.7057L182.837 9.86856ZM199.869 13.2114C199.869 14.2743 199.716 15.2514 199.409 16.1428C199.103 17.0171 198.66 17.7714 198.082 18.4057C197.503 19.0228 196.805 19.5028 195.988 19.8457C195.188 20.1886 194.286 20.36 193.282 20.36C192.294 20.36 191.392 20.1886 190.575 19.8457C189.775 19.5028 189.086 19.0228 188.507 18.4057C187.928 17.7714 187.477 17.0171 187.154 16.1428C186.831 15.2514 186.669 14.2743 186.669 13.2114C186.669 12.1486 186.831 11.18 187.154 10.3057C187.494 9.43142 187.954 8.6857 188.533 8.06856C189.128 7.45142 189.826 6.97142 190.626 6.62856C191.443 6.2857 192.328 6.11427 193.282 6.11427C194.252 6.11427 195.137 6.2857 195.937 6.62856C196.754 6.97142 197.452 7.45142 198.031 8.06856C198.609 8.6857 199.06 9.43142 199.384 10.3057C199.707 11.18 199.869 12.1486 199.869 13.2114ZM195.988 13.2114C195.988 12.0286 195.75 11.1028 195.273 10.4343C194.813 9.74856 194.15 9.4057 193.282 9.4057C192.414 9.4057 191.741 9.74856 191.265 10.4343C190.788 11.1028 190.55 12.0286 190.55 13.2114C190.55 14.3943 190.788 15.3371 191.265 16.04C191.741 16.7257 192.414 17.0686 193.282 17.0686C194.15 17.0686 194.813 16.7257 195.273 16.04C195.75 15.3371 195.988 14.3943 195.988 13.2114Z" fill="#FB4606"/>
</svg>
