<svg width="60" height="60" viewBox="0 0 60 60" fill="none" xmlns="http://www.w3.org/2000/svg">
<g clip-path="url(#clip0)">
<path d="M46.2644 22.4669C36.0694 11.2069 33.7535 2.44934 33.7535 2.44934C33.7535 2.44934 31.9878 3.2373 30.0002 5.04265L27.498 33.7269L30.0002 58.2407H30.0003C42.2973 58.2406 52.266 48.2719 52.266 35.975C52.2659 30.8956 49.4292 25.9623 46.2644 22.4669Z" fill="#FF6200"/>
<path d="M26.2468 9.95605C24.9715 12.5068 24.6711 15.3825 24.6833 17.5893C24.6951 19.7301 23.1869 21.5777 21.0878 21.9976C19.6212 22.291 18.1051 21.8319 17.0475 20.7743L14.9869 18.7137C14.9869 18.7137 11.9322 22.9257 11.4087 23.7182C9.05735 27.2775 7.70076 31.5516 7.73501 36.1446C7.82626 48.411 17.7334 58.2408 30.0001 58.2408V5.04272C28.7 6.22361 27.305 7.83965 26.2468 9.95605Z" fill="#FD7D21"/>
<path d="M47.5687 21.286C42.4816 15.6674 39.4584 10.7213 37.8179 7.5614C36.0411 4.13873 35.4589 2.01635 35.4545 1.99946L34.9256 0L33.0367 0.842502C32.9292 0.890474 31.6362 1.47986 30.0001 2.74707L28.7489 4.95144L30.0001 7.54557C30.9778 6.44878 31.9863 5.62891 32.7973 5.06134C34.1206 8.42713 37.475 15.3807 44.9603 23.6479C46.6278 25.4896 50.5064 30.3776 50.5064 35.975C50.5064 47.2822 41.3073 56.4814 30.0002 56.4814H30.0001L28.7489 58.749L30.0001 60.0001H30.0002C43.2476 60 54.0251 49.2225 54.0251 35.975C54.0253 31.1717 51.6719 25.8179 47.5687 21.286Z" fill="#FFB62D"/>
<path d="M15.541 50.5435C11.6824 46.7144 9.53499 41.5959 9.49429 36.1312C9.46379 32.0403 10.6334 28.0832 12.8766 24.6877C13.1505 24.2732 14.2492 22.7404 15.2028 21.4177L15.8033 22.0182C17.2802 23.4951 19.3842 24.1323 21.4328 23.7226C24.3519 23.1388 26.4589 20.5553 26.4426 17.5795C26.4324 15.7379 26.6632 13.057 27.8203 10.7426C28.4479 9.48737 29.2141 8.42718 30 7.5455V2.74689C28.2768 4.08178 26.1731 6.16885 24.673 9.16892C23.2051 12.1048 22.9116 15.3736 22.9239 17.5986C22.931 18.8935 22.0136 20.0179 20.7425 20.272C19.8513 20.4501 18.9346 20.1731 18.2914 19.5298L14.773 16.0114L13.5626 17.6804C13.437 17.8536 10.4792 21.9329 9.9407 22.7479C7.31115 26.7284 5.94002 31.3653 5.97556 36.1572C6.02318 42.5572 8.54001 48.5533 13.0624 53.041C17.5844 57.5285 23.5997 59.9998 30 59.9998V56.4811C24.5345 56.4811 19.3995 54.3724 15.541 50.5435Z" fill="#FDCB02"/>
<path d="M30.0002 24.1668C29.9872 24.1668 29.9741 24.1673 29.9611 24.1673L27.0292 37.9289L29.9611 51.6906C29.9741 51.6906 29.9872 51.691 30.0002 51.691C37.6008 51.691 43.7623 45.5295 43.7623 37.9289C43.7623 30.3283 37.6008 24.1668 30.0002 24.1668Z" fill="#ED3800"/>
<path d="M16.238 37.929C16.238 45.5165 22.3784 51.6695 29.961 51.6906V24.1674C22.3785 24.1885 16.238 30.3414 16.238 37.929Z" fill="#FF4B00"/>
<path d="M37.4666 29.8508H33.5661L29.961 35.13L28.7491 39.9823L29.961 40.8422L37.4666 29.8508Z" fill="#D9E7EC"/>
<path d="M35.9202 37.2366C33.4738 37.2366 31.6273 38.8753 31.6273 41.7373C31.6273 44.6223 33.4737 46.2379 35.9202 46.2379C38.3668 46.2379 40.2132 44.6223 40.2132 41.7373C40.2132 38.8753 38.3667 37.2366 35.9202 37.2366ZM35.9202 43.7452C35.4125 43.7452 34.9047 43.2836 34.9047 41.7372C34.9047 40.1908 35.4125 39.7292 35.9202 39.7292C36.428 39.7292 36.9357 40.1908 36.9357 41.7372C36.9357 43.2836 36.428 43.7452 35.9202 43.7452Z" fill="#D9E7EC"/>
<path d="M26.4342 46.0069L29.961 40.8422V35.13L22.5337 46.0069H26.4342Z" fill="#FAFCFD"/>
<path d="M28.373 34.1206C28.373 31.2587 26.5266 29.6199 24.08 29.6199C21.6335 29.6199 19.7871 31.2586 19.7871 34.1206C19.7871 37.0056 21.6335 38.6213 24.08 38.6213C26.5266 38.6213 28.373 37.0056 28.373 34.1206ZM23.0645 34.1206C23.0645 32.5743 23.5723 32.1126 24.08 32.1126C24.5878 32.1126 25.0956 32.5743 25.0956 34.1206C25.0956 35.667 24.5878 36.1286 24.08 36.1286C23.5723 36.1286 23.0645 35.667 23.0645 34.1206Z" fill="#FAFCFD"/>
</g>
<defs>
<clipPath id="clip0">
<rect width="60" height="60" fill="white"/>
</clipPath>
</defs>
</svg>
