<svg width="58" height="58" viewBox="0 0 58 58" fill="none" xmlns="http://www.w3.org/2000/svg">
<path d="M39.875 48.3335L47.125 48.3335C50.4576 48.3335 53.1666 45.622 53.1666 42.2918L53.1666 35.0418C53.1666 31.7117 50.4576 29.0002 47.125 29.0002L39.875 29.0002C39.4617 29.0002 39.0581 29.0437 38.6666 29.1234L38.6666 24.1668C38.6666 18.8357 43.0021 14.5002 48.3333 14.5002L50.75 14.5002C52.0864 14.5002 53.1666 13.4175 53.1666 12.0835C53.1666 10.7495 52.0864 9.66682 50.75 9.66682L48.3333 9.66682C40.3366 9.66682 33.8333 16.1701 33.8333 24.1668L33.8333 42.2918C33.8333 45.622 36.5424 48.3335 39.875 48.3335Z" fill="#42A5F5"/>
<path d="M43.5 15.7979C44.9234 14.9714 46.574 14.5002 48.3333 14.5002L50.75 14.5002C52.0864 14.5002 53.1666 13.4175 53.1666 12.0835C53.1666 10.7495 52.0864 9.66682 50.75 9.66682L48.3333 9.66682C46.6392 9.66682 45.0128 9.95924 43.5 10.4957L43.5 15.7979ZM43.5 48.3335L47.125 48.3335C50.4576 48.3335 53.1666 45.622 53.1666 42.2918L53.1666 35.0418C53.1666 31.7117 50.4576 29.0002 47.125 29.0002L43.5 29.0002L43.5 48.3335Z" fill="#3990D5"/>
<path d="M10.875 48.3335L18.125 48.3335C21.4576 48.3335 24.1667 45.622 24.1667 42.2918L24.1667 35.0418C24.1667 31.7117 21.4576 29.0002 18.125 29.0002L10.875 29.0002C10.4618 29.0002 10.0582 29.0437 9.66668 29.1234L9.66668 24.1668C9.66668 18.8381 14.0022 14.5002 19.3333 14.5002L21.75 14.5002C23.0864 14.5002 24.1667 13.4175 24.1667 12.0835C24.1667 10.7495 23.0864 9.66682 21.75 9.66682L19.3333 9.66682C11.3366 9.66682 4.83335 16.1701 4.83335 24.1668L4.83335 42.2918C4.83335 45.622 7.54243 48.3335 10.875 48.3335Z" fill="#42A5F5"/>
<path d="M14.5 15.7979C15.9234 14.9714 17.574 14.5002 19.3333 14.5002L21.75 14.5002C23.0864 14.5002 24.1667 13.4175 24.1667 12.0835C24.1667 10.7495 23.0864 9.66682 21.75 9.66682L19.3333 9.66682C17.6393 9.66682 16.0128 9.95924 14.5 10.4957L14.5 15.7979ZM14.5 48.3335L18.125 48.3335C21.4576 48.3335 24.1667 45.622 24.1667 42.2918L24.1667 35.0418C24.1667 31.7117 21.4576 29.0002 18.125 29.0002L14.5 29.0002L14.5 48.3335Z" fill="#3990D5"/>
</svg>
