<svg width="60" height="60" viewBox="0 0 60 60" fill="none" xmlns="http://www.w3.org/2000/svg">
<path d="M29.9999 60C46.3704 53.876 57.2197 38.2337 57.2197 20.7554V10.162C51.6074 10.162 47.0577 5.61234 47.0577 0H29.9999H12.9421C12.9421 5.61234 8.39237 10.162 2.78003 10.162V20.7553C2.78003 38.2337 13.6294 53.876 29.9999 60Z" fill="#FFDB0C"/>
<path d="M30 60C46.3705 53.876 57.2198 38.2337 57.2198 20.7554V10.162C51.6075 10.162 47.0578 5.61234 47.0578 0H30C30 0 30 46.6406 30 60Z" fill="#FBBF00"/>
<path d="M26.2081 40.5796L17.1844 31.5561L22.1562 26.5842L26.2081 30.636L37.8439 19.0002L42.8157 23.972L26.2081 40.5796Z" fill="#F1F1F2"/>
<path d="M30 36.7877V26.8441L37.8438 19.0002L42.8156 23.972L30 36.7877Z" fill="#E6E6E6"/>
</svg>
