<svg width="60" height="60" viewBox="0 0 60 60" fill="none" xmlns="http://www.w3.org/2000/svg">
<path d="M59.38 26.8675C54.5025 15.1025 42.97 7.5 30 7.5C17.03 7.5 5.49747 15.1025 0.619971 26.8675C-0.205029 28.8575 -0.205029 31.1425 0.619971 33.1325C5.49747 44.9 17.03 52.5 30 52.5C42.97 52.5 54.5025 44.9 59.38 33.1325C60.205 31.1425 60.205 28.8575 59.38 26.8675ZM30 40C24.485 40 20 35.515 20 30C20 24.485 24.485 20 30 20C35.515 20 40 24.485 40 30C40 35.515 35.515 40 30 40Z" fill="#2196F3"/>
<path d="M30 7.5C17.03 7.5 5.49747 15.1025 0.619971 26.8675C-0.205029 28.8575 -0.205029 31.1425 0.619971 33.1325C5.49747 44.9 17.03 52.5 30 52.5V40C24.485 40 20 35.515 20 30C20 24.485 24.485 20 30 20V7.5Z" fill="#1D83D4"/>
</svg>
