<svg width="60" height="60" viewBox="0 0 60 60" fill="none" xmlns="http://www.w3.org/2000/svg">
<g clip-path="url(#clip0)">
<path d="M22.4674 0C17.1683 0 12.8572 4.31107 12.8572 9.61014V19.5573H16.4789V9.61014C16.4789 6.30821 19.1654 3.62173 22.4674 3.62173H30.0001L31.0866 1.69014L30.0001 0H22.4674Z" fill="#E3EAEE"/>
<path d="M37.5327 0H30V3.62173H37.5327C40.8348 3.62173 43.5211 6.30821 43.5211 9.61014V19.4366H47.1429V9.61014C47.1429 4.31107 42.8318 0 37.5327 0Z" fill="#9EABB8"/>
<path d="M18.1087 15.2113C14.4083 15.2113 11.4085 18.2111 11.4085 21.9115C11.4085 25.6119 14.4083 28.6117 18.1087 28.6117H22.153V15.2113H18.1087Z" fill="#4BC0FF"/>
<path d="M41.8914 15.2113H38.0886V28.6117H41.8914C45.5918 28.6117 48.5916 25.6119 48.5916 21.9115C48.5916 18.2111 45.5918 15.2113 41.8914 15.2113Z" fill="#4B8DFF"/>
<path d="M29.0343 33.6822C27.1084 33.6822 25.2315 33.891 23.4231 34.2838L30.0001 46.3582L30.8451 39.1148L30.0001 33.6822H29.0343Z" fill="#FFD4B3"/>
<path d="M30.9658 33.6822H30V46.3582L36.5001 34.267C34.7155 33.885 32.8644 33.6822 30.9658 33.6822Z" fill="#EDBA75"/>
<path d="M23.4231 34.2839C11.5842 36.8551 2.71631 47.3912 2.71631 60.0002H30L32.5352 50.8252L30 42.4952L23.4231 34.2839Z" fill="#00EECF"/>
<path d="M57.2837 60C57.2837 47.3637 48.3774 36.8092 36.5001 34.2669L30 42.495V60H57.2837Z" fill="#00B5BC"/>
<path d="M14.1851 47.8069H22.6358V51.4286H14.1851V47.8069Z" fill="#00C6CE"/>
<path d="M38.33 45.634H41.9517V52.0324H38.33V45.634Z" fill="#007A9E"/>
<path d="M34.9497 50.4628H45.4527V54.0845H34.9497V50.4628Z" fill="#9DCFFF"/>
<path d="M20.742 14.2374C19.7255 15.8907 19.1389 17.8365 19.1389 19.9196V22.817C19.1389 28.8163 24.0012 33.6799 30 33.6822L31.2072 24.9902L30 18.5716L20.742 14.2374Z" fill="#FFE3C1"/>
<path d="M30 18.5716V33.6823H30.004C36.0047 33.6823 40.8692 28.8178 40.8692 22.8171V20.0069L30 18.5716Z" fill="#FFD4B3"/>
<path d="M20.742 14.2372C21.7624 15.0877 24.6494 17.1535 30 18.5713L31.9316 13.7625L30 9.05426C26.0841 9.05571 22.653 11.129 20.742 14.2372Z" fill="#FFB54C"/>
<path d="M40.8694 19.9195C40.8694 13.9187 36.0049 9.05426 30.0042 9.05426C30.0028 9.05426 30.0015 9.05426 30.0002 9.05426V18.5712C32.879 19.3339 36.4703 19.9094 40.8695 20.0065V19.9195H40.8694Z" fill="#FF9000"/>
<path d="M19.2556 24.9899H29.0343V28.6116H19.2556V24.9899Z" fill="#4BC0FF"/>
</g>
<defs>
<clipPath id="clip0">
<rect width="60" height="60" fill="white"/>
</clipPath>
</defs>
</svg>
