<svg width="25" height="25" viewBox="0 0 25 25" fill="none" xmlns="http://www.w3.org/2000/svg">
<g clip-path="url(#clip0)">
<path d="M9.32671 22.756C8.24563 22.756 7.13288 22.6685 6.01346 22.493C4.04185 22.1838 2.046 21.1523 1.48124 20.8435L0 20.0339L1.60369 19.5065C3.35673 18.9299 4.42312 18.5723 5.74319 18.0123C4.42141 17.3722 3.4027 16.2209 2.91232 14.7324L2.53924 13.5996L2.84518 13.6465C2.55507 13.3541 2.326 13.0574 2.14843 12.7873C1.51691 11.8283 1.18255 10.656 1.2537 9.65178L1.32389 8.6632L1.91573 8.89247C1.66606 8.42097 1.48563 7.91743 1.37958 7.38948C1.12114 6.10259 1.33743 4.73521 1.98878 3.5393L2.50434 2.59287L3.19384 3.42124C5.37451 6.04079 8.13653 7.59471 11.4147 8.04961C11.2808 7.12664 11.3811 6.23572 11.7132 5.43749C12.0998 4.50785 12.7876 3.71936 13.7016 3.15764C14.7167 2.53375 15.9477 2.23143 17.1678 2.30639C18.4623 2.38574 19.6376 2.87078 20.5711 3.70982C21.0269 3.59156 21.3628 3.46511 21.8167 3.29421C22.0899 3.19121 22.3996 3.07467 22.7872 2.94116L24.2154 2.44906L23.2841 5.10886C23.3455 5.10371 23.4088 5.09951 23.475 5.09646L25.0001 5.02741L24.0987 6.25956C24.047 6.33013 24.0338 6.34997 24.0155 6.37763C23.9429 6.48711 23.8524 6.62348 22.6152 8.27544C22.3054 8.68914 22.1507 9.22816 22.1795 9.79312C22.2892 11.94 22.0258 13.8823 21.3962 15.5661C20.8007 17.1593 19.8779 18.5261 18.6538 19.6286C17.139 20.9929 15.2074 21.9267 12.9125 22.4043C11.7868 22.6387 10.5779 22.756 9.32671 22.756Z" fill="#25D9F8"/>
<path d="M23.2839 5.10881L24.2152 2.44882L22.787 2.94091C22.3994 3.07443 22.0899 3.19116 21.8165 3.29396C21.3626 3.46505 21.0269 3.59151 20.5711 3.70976C19.6374 2.87072 18.4623 2.38568 17.1676 2.30615C15.9475 2.23119 14.7167 2.5335 13.7016 3.1574C13.2347 3.44445 12.8274 3.79064 12.4887 4.18431V22.4863C12.6312 22.4607 12.7725 22.4334 12.9125 22.4043C15.2072 21.9267 17.139 20.9926 18.6538 19.6285C19.8779 18.5259 20.8007 17.1591 21.3962 15.566C22.0258 13.8822 22.2892 11.9398 22.1795 9.79287C22.1505 9.22792 22.3052 8.68909 22.6151 8.27539C23.8523 6.62343 23.9428 6.48706 24.0155 6.37757C24.0336 6.34992 24.047 6.32989 24.0987 6.25932L24.9999 5.02736L23.475 5.09641C23.4088 5.09927 23.3453 5.10366 23.2839 5.10881Z" fill="#00C0F1"/>
</g>
<defs>
<clipPath id="clip0">
<rect width="25" height="25" fill="white"/>
</clipPath>
</defs>
</svg>
