<svg width="25" height="25" viewBox="0 0 25 25" fill="none" xmlns="http://www.w3.org/2000/svg">
<g clip-path="url(#clip0)">
<path d="M20.0145 13.3741L24.985 5.85938H17.3621L17.2199 6.41079C16.8546 7.82642 16.1691 9.74501 14.978 10.8463C14.8307 10.9823 14.6913 11.0916 14.5629 11.1791V5.85938H7.92367V7.32917H8.54394V10.6603C7.79969 10.0057 6.86452 8.75663 6.61962 6.51455L6.54809 5.85938H0L0.224876 6.77032C1.0334 10.0464 2.24628 12.7302 3.83013 14.7472C5.12312 16.394 6.66311 17.6031 8.40718 18.3406C9.96471 18.9994 11.3988 19.161 12.4307 19.161C13.3798 19.161 13.9884 19.0242 14.0396 19.0124L14.5994 18.8819L14.6284 16.8628L17.1214 19.0317H25.0001L20.0145 13.3741Z" fill="#7080E5"/>
<path d="M20.0145 13.3741L24.985 5.85938H17.3622L17.2199 6.41079C16.8546 7.82642 16.1691 9.74501 14.978 10.8463C14.8307 10.9823 14.6913 11.0916 14.5629 11.1791V5.85938H12.0391V19.1532C12.1751 19.1585 12.3058 19.161 12.4307 19.161C13.3798 19.161 13.9884 19.0242 14.0396 19.0124L14.5994 18.8819L14.6284 16.8628L17.1214 19.0317H25.0001L20.0145 13.3741Z" fill="#4C60DE"/>
</g>
<defs>
<clipPath id="clip0">
<rect width="25" height="25" fill="white"/>
</clipPath>
</defs>
</svg>
