<svg width="25" height="25" viewBox="0 0 25 25" fill="none" xmlns="http://www.w3.org/2000/svg">
<path d="M24.4837 6.59981C24.1459 5.32818 23.1503 4.32701 21.8857 3.98693C20.0108 3.48148 13.2633 3.4668 12.5 3.4668L9.57031 12.4878L12.5 21.5088C13.2633 21.5088 20.0108 21.4941 21.8853 20.9888C23.1503 20.6486 24.1459 19.6474 24.4835 18.3764C24.9941 16.4589 25 12.649 25 12.4878C25 12.3266 24.9941 8.51669 24.4837 6.59981Z" fill="#D63030"/>
<path d="M3.1147 3.98674C1.84975 4.32701 0.854111 5.32818 0.51651 6.59924C0.00591278 8.51669 0 12.3266 0 12.4878C0 12.649 0.00591278 16.4589 0.516319 18.3758C0.854111 19.6474 1.84975 20.6486 3.11432 20.9887C4.98924 21.4941 11.7367 21.5088 12.5 21.5088V3.4668C11.7367 3.4668 4.98924 3.48148 3.1147 3.98674Z" fill="#F44545"/>
<path d="M12.5 9.51294L10.5469 12.4878L12.5 15.4629L17.7242 12.488L12.5 9.51294Z" fill="#FFE6F7"/>
<path d="M9.35956 7.72437V17.2512L12.5 15.4629V9.51289L9.35956 7.72437Z" fill="white"/>
</svg>
